<svg viewBox="0 0 24 24"><path fill="currentColor" d="M16.331 1a5.364 5.364 0 00-4.33 2.162A5.207 5.207 0 0010.978 6c-.002.01-.002.02-.002.031v.006l-.002.012v.006a4.582 4.582 0 00-.004.174A3.278 3.278 0 018.16 9.152v7.258c.555.192.953.716.953 1.33 0 .78-.638 1.41-1.428 1.41-.789 0-1.427-.63-1.427-1.41 0-.614.398-1.138.953-1.33V9.148c-1.524-.228-2.727-1.493-2.816-3.04v-.231a1.02 1.02 0 00-1.021-1.014 1.02 1.02 0 00-1.026 1.014v11.758c0 2.925 2.366 5.353 5.322 5.365a5.347 5.347 0 004.226-2.035c.034-.042.068-.083.1-.127a5.207 5.207 0 001.028-2.87l.003-.07v-.002-.084a3.273 3.273 0 012.811-2.968V7.605a1.408 1.408 0 01-.951-1.328c0-.779.639-1.412 1.428-1.412.788 0 1.425.633 1.425 1.412 0 .613-.396 1.134-.95 1.328v7.247c1.528.227 2.73 1.499 2.812 3.056v.211a1.02 1.02 0 001.023 1.004 1.02 1.02 0 001.025-1.014V6.363c0-2.925-2.366-5.353-5.32-5.363z"/></svg>
